<svg height="638" width="720" xmlns="http://www.w3.org/2000/svg">
<rect height="638" fill="#555" width="720"></rect>
<text fill="#7f7" font-family="Courier New" font-size="12" xml:space="preserve">
<tspan x="10" y="26">10 megabytes installed</tspan>
<tspan x="10" y="42"></tspan>
<tspan x="10" y="58">node_modules</tspan>
<tspan x="10" y="74">└─┬ nedb@1.8.0 </tspan>
<tspan x="10" y="90">  ├── async@0.2.10 </tspan>
<tspan x="10" y="106">  ├── binary-search-tree@0.2.5 </tspan>
<tspan x="10" y="122">  ├─┬ localforage@1.5.0 </tspan>
<tspan x="10" y="138">  │ └─┬ lie@3.0.2 </tspan>
<tspan x="10" y="154">  │   ├─┬ es3ify@0.1.4 </tspan>
<tspan x="10" y="170">  │   │ ├── esprima-fb@3001.1.0-dev-harmony-fb </tspan>
<tspan x="10" y="186">  │   │ ├─┬ jstransform@3.0.0 </tspan>
<tspan x="10" y="202">  │   │ │ ├── base62@0.1.1 </tspan>
<tspan x="10" y="218">  │   │ │ └─┬ source-map@0.1.31 </tspan>
<tspan x="10" y="234">  │   │ │   └── amdefine@1.0.1 </tspan>
<tspan x="10" y="250">  │   │ └── through@2.3.8 </tspan>
<tspan x="10" y="266">  │   ├── immediate@3.0.6 </tspan>
<tspan x="10" y="282">  │   ├─┬ inline-process-browser@1.0.0 </tspan>
<tspan x="10" y="298">  │   │ ├─┬ falafel@1.2.0 </tspan>
<tspan x="10" y="314">  │   │ │ ├── acorn@1.2.2 </tspan>
<tspan x="10" y="330">  │   │ │ ├── foreach@2.0.5 </tspan>
<tspan x="10" y="346">  │   │ │ ├── isarray@0.0.1 </tspan>
<tspan x="10" y="362">  │   │ │ └── object-keys@1.0.11 </tspan>
<tspan x="10" y="378">  │   │ └─┬ through2@0.6.5 </tspan>
<tspan x="10" y="394">  │   │   ├─┬ readable-stream@1.0.34 </tspan>
<tspan x="10" y="410">  │   │   │ ├── core-util-is@1.0.2 </tspan>
<tspan x="10" y="426">  │   │   │ ├── inherits@2.0.3 </tspan>
<tspan x="10" y="442">  │   │   │ └── string_decoder@0.10.31 </tspan>
<tspan x="10" y="458">  │   │   └── xtend@4.0.1 </tspan>
<tspan x="10" y="474">  │   └─┬ unreachable-branch-transform@0.3.0 </tspan>
<tspan x="10" y="490">  │     ├── esmangle-evaluator@1.0.1 </tspan>
<tspan x="10" y="506">  │     └─┬ recast@0.10.43 </tspan>
<tspan x="10" y="522">  │       ├── ast-types@0.8.15 </tspan>
<tspan x="10" y="538">  │       ├── esprima-fb@15001.1001.0-dev-harmony-fb </tspan>
<tspan x="10" y="554">  │       ├── private@0.1.7 </tspan>
<tspan x="10" y="570">  │       └── source-map@0.5.6 </tspan>
<tspan x="10" y="586">  ├─┬ mkdirp@0.5.1 </tspan>
<tspan x="10" y="602">  │ └── minimist@0.0.8 </tspan>
<tspan x="10" y="618">  └── underscore@1.4.4</tspan>
</text>
</svg>
